<svg width="40" height="30" viewBox="0 0 40 30" fill="none" xmlns="http://www.w3.org/2000/svg">
<path d="M9.237 7.26739H11.1152C11.806 7.26739 12.3673 6.94417 12.3673 6.54848V0.718903C12.3673 0.321254 11.806 0 11.1152 0H9.237C8.54888 0 7.98759 0.321254 7.98759 0.718903V6.54848C7.98489 6.94417 8.54618 7.26739 9.237 7.26739Z" fill="black"/>
<path d="M28.8848 7.26739H30.763C31.4538 7.26739 32.0151 6.94417 32.0151 6.54848V0.718903C32.0151 0.321254 31.4538 0 30.763 0H28.8848C28.194 0 27.6354 0.321254 27.6354 0.718903V6.54848C27.6354 6.94417 28.194 7.26739 28.8848 7.26739Z" fill="black"/>
<path d="M38.4969 2.78159H33.5155V7.24388C33.5155 8.24094 32.2796 9.05191 30.7603 9.05191H28.8821C27.3629 9.05191 26.127 8.24094 26.127 7.24388V2.78159H13.8649V7.24388C13.8649 8.24094 12.629 9.05191 11.1098 9.05191H9.237C7.72043 9.05191 6.48452 8.24094 6.48452 7.24388V2.78159H1.50307C0.674627 2.78159 0 3.2713 0 3.87267V28.9128C0 29.5142 0.674627 30 1.50307 30H38.4969C39.3281 30 40 29.5142 40 28.9128V3.87267C40 3.2713 39.3281 2.78159 38.4969 2.78159ZM37.968 18.5896V27.1087C37.968 27.2968 37.7575 27.4535 37.4958 27.4535H19.4589H2.50422C2.24246 27.4535 2.03198 27.2968 2.03198 27.1087V20.1959V11.6768C2.03198 11.4887 2.24246 11.332 2.50422 11.332H20.5384H37.4958C37.7575 11.332 37.968 11.4887 37.968 11.6768V18.5896Z" fill="black"/>
<path d="M10.2975 17.4927H5.6156V20.8932H10.2975V17.4927Z" fill="black"/>
<path d="M18.2662 17.4927H13.5843V20.8932H18.2662V17.4927Z" fill="black"/>
<path d="M26.1539 17.4927H21.4747V20.8932H26.1539V17.4927Z" fill="black"/>
<path d="M34.1253 17.4927H29.4407V20.8932H34.1253V17.4927Z" fill="black"/>
<path d="M10.3973 22.3937H5.71274V25.7943H10.3973V22.3937Z" fill="black"/>
<path d="M18.3661 22.3937H13.6841V25.7943H18.3661V22.3937Z" fill="black"/>
<path d="M26.2538 22.3937H21.5746V25.7943H26.2538V22.3937Z" fill="black"/>
<path d="M34.2252 22.3937H29.5433V25.7943H34.2252V22.3937Z" fill="black"/>
<path d="M26.1863 12.6739H21.5044V16.0725H26.1863V12.6739Z" fill="black"/>
<path d="M34.1577 12.6739H29.4785V16.0725H34.1577V12.6739Z" fill="black"/>
</svg>
