<svg width="23" height="23" viewBox="0 0 23 23" fill="none" xmlns="http://www.w3.org/2000/svg">
<path d="M5.51009 5.36575H6.55534C6.9398 5.36575 7.25217 5.12711 7.25217 4.83496V0.53079C7.25217 0.237192 6.9398 0 6.55534 0H5.51009C5.12713 0 4.81476 0.237192 4.81476 0.53079V4.83496C4.81326 5.12711 5.12563 5.36575 5.51009 5.36575Z" fill="white"/>
<path d="M16.4447 5.36575H17.4899C17.8744 5.36575 18.1867 5.12711 18.1867 4.83496V0.53079C18.1867 0.237192 17.8744 0 17.4899 0H16.4447C16.0602 0 15.7493 0.237192 15.7493 0.53079V4.83496C15.7493 5.12711 16.0602 5.36575 16.4447 5.36575Z" fill="white"/>
<path d="M21.7941 2.05374H19.0217V5.3484C19.0217 6.08456 18.3339 6.68333 17.4884 6.68333H16.4432C15.5976 6.68333 14.9098 6.08456 14.9098 5.3484V2.05374H8.08567V5.3484C8.08567 6.08456 7.39785 6.68333 6.55233 6.68333H5.51009C4.66608 6.68333 3.97826 6.08456 3.97826 5.3484V2.05374H1.20594C0.744891 2.05374 0.369442 2.41532 0.369442 2.85933V21.3473C0.369442 21.7913 0.744891 22.15 1.20594 22.15H21.7941C22.2566 22.15 22.6306 21.7913 22.6306 21.3473V2.85933C22.6306 2.41532 22.2566 2.05374 21.7941 2.05374ZM21.4997 13.7253V20.0153C21.4997 20.1541 21.3826 20.2698 21.2369 20.2698H11.1989H1.76311C1.61743 20.2698 1.50029 20.1541 1.50029 20.0153V14.9113V8.62136C1.50029 8.48252 1.61743 8.36682 1.76311 8.36682H11.7996H21.2369C21.3826 8.36682 21.4997 8.48252 21.4997 8.62136V13.7253Z" fill="white"/>
<path d="M6.10029 12.9154H3.49468V15.4262H6.10029V12.9154Z" fill="white"/>
<path d="M10.5351 12.9154H7.92948V15.4262H10.5351V12.9154Z" fill="white"/>
<path d="M14.9248 12.9154H12.3207V15.4262H14.9248V12.9154Z" fill="white"/>
<path d="M19.3611 12.9154H16.754V15.4262H19.3611V12.9154Z" fill="white"/>
<path d="M6.15586 16.534H3.54874V19.0448H6.15586V16.534Z" fill="white"/>
<path d="M10.5907 16.534H7.98505V19.0448H10.5907V16.534Z" fill="white"/>
<path d="M14.9804 16.534H12.3763V19.0448H14.9804V16.534Z" fill="white"/>
<path d="M19.4167 16.534H16.8111V19.0448H19.4167V16.534Z" fill="white"/>
<path d="M14.9429 9.35753H12.3372V11.8668H14.9429V9.35753Z" fill="white"/>
<path d="M19.3792 9.35753H16.7751V11.8668H19.3792V9.35753Z" fill="white"/>
</svg>
