<svg width="35" height="35" viewBox="0 0 35 35" fill="none" xmlns="http://www.w3.org/2000/svg">
<path d="M3.01951 19.602C3.46956 19.1968 3.99978 18.9047 4.57075 18.7472C5.14171 18.5898 5.73873 18.5711 6.31743 18.6926C7.21278 18.8782 8.01498 19.401 8.57649 20.1649L9.24307 18.4356C8.90268 18.1105 8.52472 17.8327 8.11831 17.609C8.74432 17.0527 9.1941 16.3052 9.40663 15.4679C9.61917 14.6307 9.58415 13.7442 9.30635 12.9289C9.02855 12.1135 8.52141 11.4086 7.85373 10.91C7.18606 10.4113 6.39017 10.143 5.57406 10.1414C4.75796 10.1397 3.96113 10.4049 3.29171 10.9009C2.62229 11.3969 2.11267 12.0998 1.83201 12.914C1.55135 13.7283 1.51322 14.6146 1.72281 15.4527C1.9324 16.2908 2.37955 17.0401 3.0036 17.5989C2.64564 17.7946 2.309 18.0316 1.99975 18.3055C1.37318 18.8599 0.869191 19.5541 0.523578 20.3389C0.177965 21.1236 -0.000791946 21.9795 2.63738e-06 22.8459V25.3815H1.59089V22.8459C1.59008 22.2269 1.71767 21.6153 1.9646 21.0546C2.21152 20.4939 2.5717 19.998 3.01951 19.602ZM3.18178 14.3939C3.18178 13.8924 3.32174 13.4021 3.58395 12.9851C3.84617 12.5682 4.21886 12.2432 4.65491 12.0512C5.09095 11.8593 5.57076 11.8091 6.03367 11.907C6.49657 12.0048 6.92177 12.2463 7.25551 12.6009C7.58924 12.9555 7.81652 13.4073 7.9086 13.8992C8.00068 14.391 7.95342 14.9009 7.7728 15.3642C7.59219 15.8275 7.28632 16.2235 6.89389 16.5021C6.50146 16.7808 6.04009 16.9295 5.56812 16.9295C4.93548 16.9286 4.329 16.6612 3.88165 16.1858C3.43431 15.7105 3.18262 15.0661 3.18178 14.3939ZM31.9817 17.609C32.6078 17.0529 33.0578 16.3055 33.2706 15.4684C33.4834 14.6312 33.4486 13.7447 33.1711 12.9292C32.8935 12.1138 32.3866 11.4088 31.719 10.9099C31.0515 10.411 30.2557 10.1424 29.4396 10.1405C28.6235 10.1386 27.8266 10.4036 27.157 10.8993C26.4875 11.3951 25.9776 12.0978 25.6967 12.912C25.4158 13.7261 25.3774 14.6124 25.5868 15.4506C25.7961 16.2887 26.2431 17.0382 26.8669 17.5972C26.5089 17.7934 26.1722 18.0309 25.8631 18.3055C25.8217 18.341 25.7931 18.39 25.7517 18.4272L26.4072 20.1277C26.85 19.5415 27.437 19.097 28.1032 18.8437C28.7693 18.5903 29.4884 18.538 30.1808 18.6926C31.1138 18.918 31.9448 19.4792 32.5331 20.2811C33.1213 21.083 33.4307 22.0763 33.4087 23.0927V25.3815H34.9996V23.0927C35.0123 21.9737 34.7382 20.8721 34.2065 19.906C33.6749 18.94 32.9057 18.1459 31.9817 17.609ZM27.0451 14.3939C27.0451 13.8924 27.1851 13.4021 27.4473 12.9851C27.7095 12.5682 28.0822 12.2432 28.5183 12.0512C28.9543 11.8593 29.4341 11.8091 29.897 11.907C30.3599 12.0048 30.7851 12.2463 31.1189 12.6009C31.4526 12.9555 31.6799 13.4073 31.7719 13.8992C31.864 14.391 31.8168 14.9009 31.6361 15.3642C31.4555 15.8275 31.1497 16.2235 30.7572 16.5021C30.3648 16.7808 29.9034 16.9295 29.4315 16.9295C28.7988 16.9286 28.1923 16.6612 27.745 16.1858C27.2977 15.7105 27.046 15.0661 27.0451 14.3939ZM14.318 13.5486V11.8582C14.3169 11.3462 14.4258 10.8407 14.6365 10.3802C14.8471 9.91969 15.1539 9.51635 15.5334 9.20091C15.9195 8.8802 16.3696 8.65757 16.8491 8.55004C17.3286 8.44251 17.8249 8.45294 18.3 8.58052C19.0034 8.79841 19.6189 9.2582 20.0499 9.8878C20.4809 10.5174 20.7031 11.2812 20.6816 12.0594V13.5486H22.2725V12.0611C22.2769 11.1623 22.0688 10.2767 21.6671 9.4857C21.2654 8.6947 20.6831 8.02363 19.9736 7.53416C20.6204 6.98788 21.0909 6.24117 21.32 5.39772C21.549 4.55427 21.5252 3.65597 21.2518 2.82756C20.9784 1.99916 20.469 1.28179 19.7944 0.775074C19.1197 0.268363 18.3133 -0.0025308 17.4871 1.78196e-05C16.661 0.00256644 15.856 0.278431 15.1842 0.789296C14.5123 1.30016 14.0068 2.02067 13.738 2.85074C13.4691 3.68082 13.4502 4.57926 13.6838 5.42128C13.9175 6.2633 14.3922 7.0071 15.0419 7.54937C14.8713 7.64667 14.7066 7.75506 14.5487 7.87393C13.9798 8.347 13.52 8.9518 13.2043 9.64226C12.8886 10.3327 12.7254 11.0906 12.7271 11.8582V13.5486H14.318ZM15.1135 4.25138C15.1135 3.74988 15.2534 3.25964 15.5156 2.84266C15.7778 2.42568 16.1505 2.10068 16.5866 1.90877C17.0226 1.71685 17.5024 1.66664 17.9653 1.76448C18.4282 1.86231 18.8534 2.10381 19.1872 2.45842C19.5209 2.81303 19.7482 3.26484 19.8403 3.7567C19.9323 4.24856 19.8851 4.75839 19.7045 5.22171C19.5239 5.68504 19.218 6.08105 18.8256 6.35967C18.4331 6.63828 17.9718 6.787 17.4998 6.787C16.8672 6.7861 16.2607 6.51867 15.8133 6.04334C15.366 5.56801 15.1143 4.92359 15.1135 4.25138ZM30.168 34.3576L28.6949 35L21.7379 16.9295H13.2617L6.3047 35L4.83153 34.3576L11.7885 16.2905C11.9074 15.9792 12.1112 15.7127 12.3737 15.5254C12.6362 15.338 12.9454 15.2383 13.2617 15.2391H21.7379C22.0535 15.2382 22.3622 15.3374 22.6244 15.5242C22.8866 15.7109 23.0903 15.9766 23.2095 16.2871L30.168 34.3576Z" fill="black"/>
</svg>
