<svg width="23" height="23" viewBox="0 0 23 23" fill="none" xmlns="http://www.w3.org/2000/svg">
<path d="M1.98425 12.8813C2.28 12.6151 2.62843 12.4231 3.00363 12.3196C3.37884 12.2161 3.77117 12.2039 4.15145 12.2837C4.73983 12.4057 5.26699 12.7492 5.63598 13.2512L6.07402 12.1148C5.85033 11.9012 5.60196 11.7187 5.33489 11.5716C5.74627 11.206 6.04184 10.7148 6.1815 10.1646C6.32117 9.61445 6.29816 9.03193 6.1156 8.49611C5.93305 7.96028 5.59978 7.49711 5.16102 7.16942C4.72227 6.84173 4.19926 6.66538 3.66296 6.66432C3.12666 6.66326 2.60303 6.83752 2.16312 7.16347C1.72322 7.48942 1.38833 7.95127 1.20389 8.48637C1.01946 9.02146 0.994403 9.60389 1.13213 10.1546C1.26986 10.7054 1.56371 11.1977 1.9738 11.565C1.73856 11.6936 1.51734 11.8493 1.31412 12.0293C0.902376 12.3937 0.571183 12.8499 0.344066 13.3655C0.116949 13.8812 -0.000520422 14.4437 1.73314e-06 15.013V16.6793H1.04544V15.013C1.04491 14.6062 1.12876 14.2043 1.29102 13.8359C1.45328 13.4674 1.68997 13.1415 1.98425 12.8813ZM2.09089 9.45882C2.09089 9.12926 2.18286 8.80711 2.35517 8.53309C2.52748 8.25908 2.77239 8.04551 3.05894 7.91939C3.34548 7.79328 3.66079 7.76028 3.96498 7.82457C4.26917 7.88887 4.54859 8.04756 4.76791 8.28059C4.98722 8.51362 5.13657 8.81052 5.19708 9.13375C5.25759 9.45697 5.22653 9.792 5.10784 10.0965C4.98915 10.4009 4.78816 10.6612 4.53027 10.8443C4.27239 11.0274 3.9692 11.1251 3.65905 11.1251C3.24332 11.1245 2.84477 10.9488 2.5508 10.6364C2.25683 10.324 2.09144 9.90056 2.09089 9.45882ZM21.0165 11.5716C21.428 11.2062 21.7237 10.7151 21.8635 10.1649C22.0034 9.61477 21.9805 9.03224 21.7981 8.49636C21.6157 7.96048 21.2826 7.4972 20.8439 7.16936C20.4053 6.84152 19.8823 6.66501 19.346 6.66377C18.8097 6.66253 18.286 6.83662 17.846 7.16242C17.406 7.48823 17.071 7.94997 16.8864 8.485C16.7018 9.02003 16.6766 9.60245 16.8142 10.1532C16.9517 10.704 17.2454 11.1965 17.6554 11.5639C17.4201 11.6928 17.1989 11.8489 16.9957 12.0293C16.9686 12.0526 16.9497 12.0849 16.9226 12.1093L17.3533 13.2268C17.6443 12.8415 18.0301 12.5495 18.4678 12.383C18.9055 12.2165 19.3781 12.1821 19.8331 12.2837C20.4462 12.4318 20.9923 12.8006 21.3789 13.3276C21.7655 13.8545 21.9687 14.5073 21.9543 15.1752V16.6793H22.9997V15.1752C23.0081 14.4399 22.8279 13.716 22.4786 13.0811C22.1292 12.4463 21.6238 11.9245 21.0165 11.5716ZM17.7725 9.45882C17.7725 9.12926 17.8645 8.80711 18.0368 8.53309C18.2091 8.25908 18.454 8.04551 18.7406 7.91939C19.0271 7.79328 19.3424 7.76028 19.6466 7.82457C19.9508 7.88887 20.2302 8.04756 20.4495 8.28059C20.6688 8.51362 20.8182 8.81052 20.8787 9.13375C20.9392 9.45697 20.9082 9.792 20.7895 10.0965C20.6708 10.4009 20.4698 10.6612 20.2119 10.8443C19.954 11.0274 19.6508 11.1251 19.3407 11.1251C18.9249 11.1245 18.5264 10.9488 18.2324 10.6364C17.9385 10.324 17.7731 9.90056 17.7725 9.45882ZM9.40898 8.9034V7.79256C9.40826 7.45609 9.47984 7.12389 9.61825 6.82127C9.75667 6.51865 9.95827 6.2536 10.2077 6.04631C10.4614 5.83556 10.7571 5.68926 11.0722 5.6186C11.3873 5.54794 11.7135 5.55479 12.0257 5.63863C12.488 5.78181 12.8924 6.08396 13.1757 6.49769C13.4589 6.91143 13.6049 7.41335 13.5907 7.92475V8.9034H14.6362V7.92586C14.6391 7.33522 14.5023 6.75327 14.2384 6.23346C13.9744 5.71366 13.5917 5.27267 13.1255 4.95102C13.5505 4.59204 13.8598 4.10134 14.0103 3.54707C14.1608 2.99281 14.1451 2.40249 13.9655 1.85811C13.7858 1.31373 13.4511 0.842316 13.0077 0.509334C12.5644 0.176353 12.0345 -0.0016631 11.4915 1.17101e-05C10.9486 0.00168652 10.4197 0.182969 9.97817 0.51868C9.53665 0.854391 9.20449 1.32787 9.0278 1.87334C8.85112 2.41882 8.83869 3.00923 8.99224 3.56255C9.1458 4.11588 9.45771 4.60466 9.88465 4.96102C9.7726 5.02496 9.66436 5.09619 9.56057 5.1743C9.1867 5.48517 8.88454 5.88261 8.6771 6.33634C8.46966 6.79007 8.36242 7.28812 8.36354 7.79256V8.9034H9.40898ZM9.9317 2.79376C9.9317 2.4642 10.0237 2.14205 10.196 1.86803C10.3683 1.59402 10.6132 1.38045 10.8998 1.25433C11.1863 1.12822 11.5016 1.09522 11.8058 1.15951C12.11 1.22381 12.3894 1.3825 12.6087 1.61553C12.828 1.84856 12.9774 2.14546 13.0379 2.46869C13.0984 2.79191 13.0673 3.12694 12.9487 3.43141C12.83 3.73588 12.629 3.99612 12.3711 4.17921C12.1132 4.3623 11.81 4.46003 11.4999 4.46003C11.0841 4.45944 10.6856 4.2837 10.3916 3.97134C10.0976 3.65898 9.93225 3.2355 9.9317 2.79376ZM19.8247 22.5779L18.8566 23L14.2849 11.1251H8.7148L4.14309 23L3.17501 22.5779L7.74672 10.7052C7.82488 10.5006 7.95881 10.3255 8.13131 10.2024C8.30381 10.0793 8.507 10.0138 8.7148 10.0142H14.2849C14.4923 10.0136 14.6952 10.0789 14.8675 10.2016C15.0398 10.3243 15.1737 10.4989 15.252 10.703L19.8247 22.5779Z" fill="white"/>
</svg>
