<svg width="23" height="22" viewBox="0 0 23 22" fill="none" xmlns="http://www.w3.org/2000/svg">
<g clip-path="url(#clip0_59_2)">
<path d="M7.84091 9.85C9.23107 9.85 10.468 9.198 11.25 8.19074C12.032 9.198 13.2689 9.85 14.6591 9.85C17.0183 9.85 18.9375 7.9734 18.9375 5.66667C18.9375 3.35994 17.0183 1.48334 14.6591 1.48334C13.2689 1.48334 12.032 2.13534 11.25 3.1426C10.468 2.13534 9.23107 1.48334 7.84091 1.48334C5.48175 1.48334 3.5625 3.35994 3.5625 5.66667C3.5625 7.9734 5.48175 9.85 7.84091 9.85ZM14.6591 3.48334C15.8904 3.48334 16.892 4.46274 16.892 5.66667C16.892 6.8706 15.8904 7.85 14.6591 7.85C13.4278 7.85 12.4261 6.8706 12.4261 5.66667C12.4261 4.46274 13.4278 3.48334 14.6591 3.48334ZM7.84091 3.48334C9.0722 3.48334 10.0739 4.46274 10.0739 5.66667C10.0739 6.8706 9.0722 7.85 7.84091 7.85C6.60961 7.85 5.60795 6.8706 5.60795 5.66667C5.60795 4.46274 6.60961 3.48334 7.84091 3.48334Z" fill="white"/>
<path d="M14.6591 11.85C13.4746 11.85 12.3069 12.1128 11.2485 12.6127C10.2174 12.1242 9.06135 11.85 7.8409 11.85C3.51742 11.85 -1.14441e-05 15.2893 -1.14441e-05 19.5167C-1.14441e-05 20.0689 0.457898 20.5167 1.02272 20.5167H14.6591H21.4773C22.0421 20.5167 22.5 20.0689 22.5 19.5167C22.5 15.2893 18.9826 11.85 14.6591 11.85ZM2.13578 18.5167C2.62028 15.8674 4.99417 13.85 7.8409 13.85C10.6876 13.85 13.0615 15.8674 13.546 18.5167H2.13578ZM15.6151 18.5167C15.3798 16.7585 14.5328 15.186 13.2906 14.0102C13.7364 13.9047 14.1959 13.85 14.659 13.85C17.5057 13.85 19.8796 15.8674 20.3641 18.5167H15.6151Z" fill="white"/>
</g>
<defs>
<clipPath id="clip0_59_2">
<rect width="22.5" height="22" fill="white"/>
</clipPath>
</defs>
</svg>
