<svg width="23" height="23" viewBox="0 0 23 23" fill="none" xmlns="http://www.w3.org/2000/svg">
<path d="M22.1576 8.67584L14.8887 1.40156C13.989 0.504016 12.7704 0 11.5 0C10.2296 0 9.01098 0.504016 8.11134 1.40156L0.842386 8.67584C0.57446 8.94221 0.362041 9.25914 0.21744 9.60827C0.0728402 9.95739 -0.00106413 10.3318 1.15762e-05 10.7097V20.1233C1.15762e-05 20.8862 0.302912 21.6179 0.842079 22.1574C1.38125 22.6969 2.11251 23 2.87501 23H20.125C20.8875 23 21.6188 22.6969 22.1579 22.1574C22.6971 21.6179 23 20.8862 23 20.1233V10.7097C23.0011 10.3318 22.9272 9.95739 22.7826 9.60827C22.638 9.25914 22.4255 8.94221 22.1576 8.67584ZM14.375 21.0822H8.625V17.3098C8.625 16.5469 8.9279 15.8152 9.46707 15.2757C10.0062 14.7362 10.7375 14.4331 11.5 14.4331C12.2625 14.4331 12.9938 14.7362 13.5329 15.2757C14.0721 15.8152 14.375 16.5469 14.375 17.3098V21.0822ZM21.0833 20.1233C21.0833 20.3776 20.9824 20.6215 20.8026 20.8013C20.6229 20.9812 20.3792 21.0822 20.125 21.0822H16.2917V17.3098C16.2917 16.0383 15.7868 14.8187 14.8882 13.9196C13.9896 13.0204 12.7708 12.5153 11.5 12.5153C10.2292 12.5153 9.01039 13.0204 8.11178 13.9196C7.21317 14.8187 6.70834 16.0383 6.70834 17.3098V21.0822H2.87501C2.62084 21.0822 2.37709 20.9812 2.19737 20.8013C2.01764 20.6215 1.91668 20.3776 1.91668 20.1233V10.7097C1.91756 10.4556 2.01844 10.212 2.19747 10.0317L9.46642 2.76034C10.0066 2.22232 10.7378 1.92028 11.5 1.92028C12.2622 1.92028 12.9934 2.22232 13.5336 2.76034L20.8025 10.0346C20.9809 10.2142 21.0817 10.4565 21.0833 10.7097V20.1233Z" fill="#F9F9F9"/>
</svg>
